<?xml version="1.0" encoding="UTF-8"?>
<svg id="Layer_1" xmlns="http://www.w3.org/2000/svg" version="1.1" viewBox="0 0 163.25 86.62">
  <!-- Generator: Adobe Illustrator 29.8.5, SVG Export Plug-In . SVG Version: 2.1.1 Build 2)  -->
  <rect x="52.48" y=".26" width="19.68" height="86.11" fill="#fb0026"/>
  <path d="M128.22,43.31c0-3.3-2.68-5.98-5.98-5.98s-5.98,2.68-5.98,5.98,2.68,5.98,5.98,5.98,5.98-2.68,5.98-5.98M142.15,42.64c0,8.06-2.46,14.31-7.39,18.75-4.93,4.44-11.67,6.66-20.22,6.66-3.02,0-5.38-.08-7.09-.25V18.94c1.63-.25,4.03-.37,7.21-.37,8.23,0,14.86,2.1,19.91,6.29,5.05,4.2,7.57,10.12,7.57,17.77M162.92,42.64c0-12.29-3.97-22.43-11.91-30.41C143.07,4.24,131.04.25,114.91.25h-27v86.11h26.02c15.64,0,27.71-4.13,36.22-12.4,8.51-8.26,12.76-18.71,12.76-31.33" fill="#fb0026"/>
  <polygon points="25.43 .26 .46 .26 33.08 43.31 .46 86.37 25.43 86.37 56.84 43.31 25.43 .26" fill="#fb0026"/>
</svg>